HIERARCHY
ROOT hip
{
	OFFSET 0.000000 0.000000 0.000000
	CHANNELS 6 Xposition Yposition Zposition Xrotation Zrotation Yrotation 
	JOINT abdomen
	{
		OFFSET 0.000000 3.422050 0.000000
		CHANNELS 3 Xrotation Zrotation Yrotation 
		JOINT chest
		{
			OFFSET 0.000000 8.486693 -0.684411
			CHANNELS 3 Xrotation Zrotation Yrotation 
			JOINT neck
			{
				OFFSET 0.000000 10.266162 -0.273764
				CHANNELS 3 Xrotation Zrotation Yrotation 
				JOINT head
				{
					OFFSET 0.000000 3.148285 0.000000
					CHANNELS 3 Xrotation Zrotation Yrotation 
					End Site
					{
						OFFSET 0.000000 3.148289 0.000000
					}
				}
			}
			JOINT lCollar
			{
				OFFSET 3.422053 6.707223 -0.821293
				CHANNELS 3 Yrotation Zrotation Xrotation 
				JOINT lShldr
				{
					OFFSET 3.285171 0.000000 0.000000
					CHANNELS 3 Zrotation Yrotation Xrotation 
					JOINT lForeArm
					{
						OFFSET 10.129278 0.000000 0.000000
						CHANNELS 3 Yrotation Zrotation Xrotation 
						JOINT lHand
						{
							OFFSET 8.486692 0.000000 0.000000
							CHANNELS 3 Zrotation Yrotation Xrotation 
							End Site
							{
								OFFSET 4.106464 0.000000 0.000000
							}
						}
					}
				}
			}
			JOINT rCollar
			{
				OFFSET -3.558935 6.707223 -0.821293
				CHANNELS 3 Yrotation Zrotation Xrotation 
				JOINT rShldr
				{
					OFFSET -3.148289 0.000000 0.000000
					CHANNELS 3 Zrotation Yrotation Xrotation 
					JOINT rForeArm
					{
						OFFSET -10.266159 0.000000 0.000000
						CHANNELS 3 Yrotation Zrotation Xrotation 
						JOINT rHand
						{
							OFFSET -8.349810 0.000000 0.000000
							CHANNELS 3 Zrotation Yrotation Xrotation 
							End Site
							{
								OFFSET -4.106464 0.000000 0.000000
							}
						}
					}
				}
			}
		}
	}
	JOINT lThigh
	{
		OFFSET 5.338403 -1.642589 1.368821
		CHANNELS 3 Xrotation Zrotation Yrotation 
		JOINT lShin
		{
			OFFSET -2.053232 -20.121670 0.000000
			CHANNELS 3 Xrotation Zrotation Yrotation 
			JOINT lFoot
			{
				OFFSET 0.000000 -19.300380 -1.231939
				CHANNELS 3 Xrotation Yrotation Zrotation 
				End Site
				{
					OFFSET 0.000000 -2.463878 4.653993
				}
			}
		}
	}
	JOINT rThigh
	{
		OFFSET -5.338403 -1.642589 1.368821
		CHANNELS 3 Xrotation Zrotation Yrotation 
		JOINT rShin
		{
			OFFSET 2.053232 -20.121670 0.000000
			CHANNELS 3 Xrotation Zrotation Yrotation 
			JOINT rFoot
			{
				OFFSET 0.000000 -19.300380 -1.231939
				CHANNELS 3 Xrotation Yrotation Zrotation 
				End Site
				{
					OFFSET 0.000000 -2.463878 4.653993
				}
			}
		}
	}
}
MOTION
Frames: 6
Frame Time: 0.033264
0.000000 43.528500 0.000000 0.000000 0.000000 0.000000 0.000000 0.000000 0.000000 0.000000 0.000000 0.000000 0.000000 0.000000 0.000000 0.000000 0.000000 0.000000 0.000000 0.000000 0.000000 0.000000 0.000000 0.000000 0.000000 0.000000 0.000000 0.000000 0.000000 0.000000 0.000000 0.000000 0.000000 0.000000 0.000000 0.000000 0.000000 0.000000 0.000000 0.000000 0.000000 0.000000 0.000000 0.000000 0.000000 0.000000 0.000000 0.000000 0.000000 0.000000 0.000000 0.000000 0.000000 0.000000 0.000000 0.000000 0.000000 0.000000 0.000000 0.000000 
0.063078 12.671093 -23.522278 0.000000 0.000000 0.000000 24.371777 -4.005695 -1.379071 19.586494 16.459887 -1.584044 0.000000 0.000000 0.000000 -0.124157 0.907509 -0.000983 -20.565374 -12.046210 -2.766732 -7.699835 -31.516893 3.561338 -70.339752 4.581995 17.123676 25.997908 0.000000 0.000000 37.442806 17.523275 -7.108531 8.605566 34.333275 2.576674 56.829800 5.659725 -4.450785 6.996825 0.000000 0.000000 -51.482719 6.586440 -0.015659 144.808624 5.613261 -0.765928 56.839844 8.289905 3.635963 -51.581436 -5.568869 -0.054189 144.820786 -5.457131 0.759836 57.668148 -8.145470 -2.687452 
0.063078 12.671093 -23.522278 0.000000 0.000000 0.000000 24.336451 -4.006425 -1.377050 19.463991 16.473003 -1.618831 0.000000 0.000000 0.000000 -0.240899 1.807307 0.028530 -20.565374 -12.046210 -2.766732 -7.699836 -31.516901 3.561339 -70.339752 4.581995 17.123676 25.997910 0.000000 0.000000 37.442806 17.523275 -7.108531 8.575942 34.233585 2.561209 56.829800 5.659725 -4.450785 6.011135 0.669117 0.123979 -51.482723 6.586441 -0.015658 144.808624 5.613261 -0.765928 56.839844 8.289905 3.635963 -51.581436 -5.568869 -0.054189 144.820786 -5.457131 0.759836 57.668148 -8.145470 -2.687452 
0.063078 12.671093 -23.522278 0.000000 0.000000 0.000000 24.301113 -4.007153 -1.375029 19.341448 16.486052 -1.653655 0.000000 0.000000 0.000000 -0.357471 2.708887 0.056277 -20.565374 -12.046210 -2.766732 -7.699835 -31.516893 3.561338 -70.339745 4.581995 17.123676 25.997908 0.000000 0.000000 37.442806 17.523277 -7.108531 8.546378 34.133869 2.545821 56.829800 5.659725 -4.450785 5.024511 1.341759 0.236689 -51.482719 6.586440 -0.015659 144.808624 5.613261 -0.765928 56.839844 8.289905 3.635963 -51.581436 -5.568869 -0.054189 144.820786 -5.457131 0.759836 57.668148 -8.145471 -2.687452 
0.063078 12.671093 -23.522278 0.000000 0.000000 0.000000 24.265783 -4.007879 -1.373008 19.218863 16.499029 -1.688517 0.000000 0.000000 0.000000 -0.473916 3.612138 0.082256 -20.565376 -12.046210 -2.766732 -7.699836 -31.516901 3.561339 -70.339752 4.581996 17.123678 25.997910 0.000000 0.000000 37.442806 17.523275 -7.108531 8.516882 34.034145 2.530512 56.829800 5.659725 -4.450785 4.036901 2.017591 0.338022 -51.482727 6.586441 -0.015659 144.808624 5.613261 -0.765928 56.839844 8.289905 3.635963 -51.581440 -5.568869 -0.054188 144.820801 -5.457131 0.759835 57.668148 -8.145470 -2.687452 
0.063078 12.671093 -23.522278 0.000000 0.000000 0.000000 24.230453 -4.008606 -1.370986 19.096235 16.511934 -1.723417 0.000000 0.000000 0.000000 -0.590273 4.516944 0.106460 -20.565374 -12.046211 -2.766732 -7.699835 -31.516893 3.561338 -70.339752 4.581995 17.123676 25.997910 0.000000 0.000000 37.442806 17.523275 -7.108531 8.487448 33.934399 2.515281 56.829800 5.659725 -4.450785 3.048250 2.696278 0.427878 -51.482719 6.586440 -0.015658 144.808624 5.613262 -0.765928 56.839844 8.289905 3.635964 -51.581440 -5.568869 -0.054188 144.820801 -5.457131 0.759836 57.668148 -8.145471 -2.687451 
